# xmcd
#
# Track frame offsets:
#	150
#	16242
#	31827
#	53437
#	88905
#	100810
#	126500
#	145905
#	166410
#	190727
#	208730
#	222802
#	231130
#	251537
#	268982
#
# Disc length: 3762 seconds
#
# Revision: 1
# Processed by: cddbd v1.4PL0 Copyright (c) Steve Scherf et al.
# Submitted via: audiograbber 1.82.01
#
DISCID=d30eb00f
DTITLE=Sailor and The Booze Boys - Slow and Fast
DYEAR=1900
DGENRE=
TTITLE0=Secret love
TTITLE1=Stewardess
TTITLE2=Save me
TTITLE3=* Please stay
TTITLE4=Slow and fast
TTITLE5=Woman of my dreams
TTITLE6=Alexandra
TTITLE7=Get up
TTITLE8=Face to face
TTITLE9=Chemical war
TTITLE10=Sad looking woman
TTITLE11=* Wine and woman song
TTITLE12=The bird
TTITLE13=Hungry for love
TTITLE14=* Turn your radio on
EXTD=
EXTT0=
EXTT1=
EXTT2=
EXTT3=
EXTT4=
EXTT5=
EXTT6=
EXTT7=
EXTT8=
EXTT9=
EXTT10=
EXTT11=
EXTT12=
EXTT13=
EXTT14=
PLAYORDER=
